<svg width="111" height="105" viewBox="0 0 111 105" fill="none" xmlns="http://www.w3.org/2000/svg">
<path fill-rule="evenodd" clip-rule="evenodd" d="M92.0191 3.68289C95.9841 5.43971 99.5374 8.00687 102.451 11.2193C107.63 16.9218 110.5 24.3493 110.5 32.0531C110.5 39.7568 107.63 47.1843 102.451 52.8868L55.7764 104.401L9.1021 52.8868C6.23558 49.8864 3.99934 46.3421 2.52541 42.4631C1.05148 38.584 0.369762 34.449 0.520502 30.3021C0.671241 26.1553 1.65139 22.0806 3.40306 18.3189C5.15473 14.5571 7.64241 11.1845 10.7192 8.40012C13.796 5.61577 17.3995 3.47616 21.3169 2.10764C25.2344 0.739117 29.3863 0.169432 33.5276 0.432224C37.6689 0.695015 41.7155 1.78496 45.4286 3.63768C49.1416 5.49041 52.4458 8.06836 55.1459 11.2193L55.7764 11.924L56.4069 11.2193C59.3202 8.00687 62.8736 5.43971 66.8385 3.68289C70.8034 1.92606 75.0921 1.01847 79.4288 1.01847C83.7655 1.01847 88.0542 1.92606 92.0191 3.68289ZM82.8254 18.7832C85.7747 20.09 88.4178 21.9996 90.5849 24.3892C94.4378 28.631 96.5724 34.156 96.5724 39.8864C96.5724 45.6168 94.4378 51.1418 90.5849 55.3836L55.8661 93.7026L21.1473 55.3836C19.0151 53.1518 17.3516 50.5153 16.2552 47.6299C15.1589 44.7445 14.6518 41.6686 14.7639 38.584C14.876 35.4993 15.6051 32.4684 16.9081 29.6702C18.2111 26.872 20.0615 24.3633 22.3502 22.2921C24.6389 20.221 27.3194 18.6294 30.2334 17.6114C33.1474 16.5935 36.2358 16.1697 39.3163 16.3652C42.3968 16.5606 45.4069 17.3714 48.1689 18.7496C50.9308 20.1277 53.3886 22.0453 55.3971 24.3892L55.8661 24.9133L56.3351 24.3892C58.5022 21.9996 61.1453 20.09 64.0947 18.7832C67.044 17.4764 70.2341 16.8013 73.46 16.8013C76.6859 16.8013 79.876 17.4764 82.8254 18.7832Z" fill="#E48B8B"/>
</svg>
